# xmcd
#
# Track frame offsets:
#	150
#	10337
#	19319
#	29959
#	41366
#	55085
#	64848
#	76533
#	88002
#	99200
#	111986
#	123706
#
# Disc length: 1790 seconds
#
# Revision: 1
# Processed by: cddbd v1.5.2PL0 Copyright (c) Steve Scherf et al.
# Submitted via: EasyCDDAExtractor 16.0.1.1
#
DISCID=9706fc0c
DTITLE=Kitty Wells and Red Foley - Together Again
DYEAR=1967
DGENRE=Country
TTITLE0=Hello Number One
TTITLE1=Together Again
TTITLE2=My Wall Came Tumblin' Down
TTITLE3=We Need One More Chance
TTITLE4=Loved And Wanted
TTITLE5=Ashes Of Love
TTITLE6=Happiness Means You
TTITLE7=Living As Strangers
TTITLE8=Looking Over Our Shoulder
TTITLE9=We Made A Mistake
TTITLE10=Have I Told You Lately That I Love You
TTITLE11=My Happiness
EXTD=
EXTT0=
EXTT1=
EXTT2=
EXTT3=
EXTT4=
EXTT5=
EXTT6=
EXTT7=
EXTT8=
EXTT9=
EXTT10=
EXTT11=
PLAYORDER=
